<!--?xml version="1.0" encoding="UTF-8" standalone="no"?-->

<!-- Generated by graphviz version 2.28.0 (20110507.0327)
 -->
<!-- Title: G Pages: 1 -->
<svg width="759pt" height="260pt" viewBox="0.00 0.00 759.00 260.00" xmlns="http://www.w3.org/2000/svg" xmlns:xlink="http://www.w3.org/1999/xlink">
    <g id="graph1" class="graph" transform="scale(1 1) rotate(0) translate(4 256)">
        <title>G</title>
        <polygon fill="white" stroke="white" points="-4,5 -4,-256 756,-256 756,5 -4,5"></polygon>
        <!-- intro_to_programming -->
        <g id="node1" class="node"><title>intro_to_programming</title>
            <ellipse fill="none" stroke="black" cx="479" cy="-234" rx="99.0169" ry="18"></ellipse>
            <text text-anchor="middle" x="479" y="-229.8" font-family="Times,serif" font-size="14.00">intro to programming</text>
        </g>
        <!-- intro_to_data_science -->
        <g id="node3" class="node"><title>intro_to_data_science</title>
            <ellipse fill="none" stroke="black" cx="273" cy="-162" rx="95.1614" ry="18"></ellipse>
            <text text-anchor="middle" x="273" y="-157.8" font-family="Times,serif" font-size="14.00">intro to data science</text>
        </g>
        <!-- intro_to_programming&#45;&gt;intro_to_data_science -->
        <g id="edge2" class="edge"><title>intro_to_programming-&gt;intro_to_data_science</title>
            <path fill="none" stroke="black" d="M434.555,-217.897C403.013,-207.179 360.501,-192.733 327.003,-181.35"></path>
            <polygon fill="black" stroke="black" points="327.96,-177.979 317.366,-178.076 325.708,-184.607 327.96,-177.979"></polygon>
        </g>
        <!-- graphic_design -->
        <g id="node5" class="node"><title>graphic_design</title>
            <ellipse fill="none" stroke="black" cx="479" cy="-162" rx="70.0505" ry="18"></ellipse>
            <text text-anchor="middle" x="479" y="-157.8" font-family="Times,serif" font-size="14.00">graphic design</text>
        </g>
        <!-- intro_to_programming&#45;&gt;graphic_design -->
        <g id="edge4" class="edge"><title>intro_to_programming-&gt;graphic_design</title>
            <path fill="none" stroke="black" d="M479,-215.697C479,-207.983 479,-198.712 479,-190.112"></path>
            <polygon fill="black" stroke="black" points="482.5,-190.104 479,-180.104 475.5,-190.104 482.5,-190.104"></polygon>
        </g>
        <!-- embedded_systems -->
        <g id="node16" class="node"><title>embedded_systems</title>
            <ellipse fill="none" stroke="black" cx="652" cy="-162" rx="82.3688" ry="18"></ellipse>
            <text text-anchor="middle" x="652" y="-157.8" font-family="Times,serif" font-size="14.00">embedded systems</text>
        </g>
        <!-- intro_to_programming&#45;&gt;operating_systems -->
        <g id="edge15" class="edge"><title>intro_to_programming-&gt;operating_systems</title>
            <path fill="none" stroke="black" d="M517.825,-217.291C543.668,-206.834 577.768,-193.036 605.123,-181.968"></path>
            <polygon fill="black" stroke="black" points="606.536,-185.172 614.493,-178.176 603.91,-178.683 606.536,-185.172"></polygon>
        </g>
        <!-- gobs_of_math -->
        <g id="node10" class="node"><title>gobs_of_math</title>
            <ellipse fill="none" stroke="black" cx="91" cy="-90" rx="65.9342" ry="18"></ellipse>
            <text text-anchor="middle" x="91" y="-85.8" font-family="Times,serif" font-size="14.00">gobs of math</text>
        </g>
        <!-- intro_to_data_science&#45;&gt;gobs_of_math -->
        <g id="edge9" class="edge"><title>intro_to_data_science-&gt;gobs_of_math</title>
            <path fill="none" stroke="black" d="M233.059,-145.638C204.856,-134.791 166.978,-120.222 137.428,-108.857"></path>
            <polygon fill="black" stroke="black" points="138.342,-105.458 127.752,-105.135 135.829,-111.992 138.342,-105.458"></polygon>
        </g>
        <!-- business_classes -->
        <g id="node13" class="node"><title>business_classes</title>
            <ellipse fill="none" stroke="black" cx="273" cy="-90" rx="75.0976" ry="18"></ellipse>
            <text text-anchor="middle" x="273" y="-85.8" font-family="Times,serif" font-size="14.00">business classes</text>
        </g>
        <!-- intro_to_data_science&#45;&gt;business_classes -->
        <g id="edge12" class="edge"><title>intro_to_data_science-&gt;business_classes</title>
            <path fill="none" stroke="black" d="M273,-143.697C273,-135.983 273,-126.712 273,-118.112"></path>
            <polygon fill="black" stroke="black" points="276.5,-118.104 273,-108.104 269.5,-118.104 276.5,-118.104"></polygon>
        </g>
        <!-- photography -->
        <g id="node7" class="node"><title>photography</title>
            <ellipse fill="none" stroke="black" cx="479" cy="-90" rx="59.2756" ry="18"></ellipse>
            <text text-anchor="middle" x="479" y="-85.8" font-family="Times,serif" font-size="14.00">photography</text>
        </g>
        <!-- graphic_design&#45;&gt;photography -->
        <g id="edge6" class="edge"><title>graphic_design-&gt;photography</title>
            <path fill="none" stroke="black" d="M479,-143.697C479,-135.983 479,-126.712 479,-118.112"></path>
            <polygon fill="black" stroke="black" points="482.5,-118.104 479,-108.104 475.5,-118.104 482.5,-118.104"></polygon>
        </g>
        <!-- i_make_memes -->
        <g id="node8" class="node"><title>i_make_memes</title>
            <ellipse fill="none" stroke="black" cx="479" cy="-18" rx="71.4663" ry="18"></ellipse>
            <text text-anchor="middle" x="479" y="-13.8" font-family="Times,serif" font-size="14.00">i make memes</text>
        </g>
        <!-- photography&#45;&gt;i_make_memes -->
        <g id="edge7" class="edge"><title>photography-&gt;i_make_memes</title>
            <path fill="none" stroke="black" d="M479,-71.6966C479,-63.9827 479,-54.7125 479,-46.1124"></path>
            <polygon fill="black" stroke="black" points="482.5,-46.1043 479,-36.1043 475.5,-46.1044 482.5,-46.1043"></polygon>
        </g>
        <!-- i_make_skynet -->
        <g id="node11" class="node"><title>i_make_skynet</title>
            <ellipse fill="none" stroke="black" cx="69" cy="-18" rx="69.2538" ry="18"></ellipse>
            <text text-anchor="middle" x="69" y="-13.8" font-family="Times,serif" font-size="14.00">i make skynet</text>
        </g>
        <!-- gobs_of_math&#45;&gt;i_make_skynet -->
        <g id="edge10" class="edge"><title>gobs_of_math-&gt;i_make_skynet</title>
            <path fill="none" stroke="black" d="M85.6744,-72.055C83.2249,-64.2609 80.2583,-54.8219 77.5105,-46.0789"></path>
            <polygon fill="black" stroke="black" points="80.7667,-44.7658 74.4294,-36.2753 74.0887,-46.8647 80.7667,-44.7658"></polygon>
        </g>
        <!-- i_maximize_skynet_profits -->
        <g id="node14" class="node"><title>i_maximize_skynet_profits</title>
            <ellipse fill="none" stroke="black" cx="273" cy="-18" rx="116.56" ry="18"></ellipse>
            <text text-anchor="middle" x="273" y="-13.8" font-family="Times,serif" font-size="14.00">i maximize cyberdyne profits</text>
        </g>
        <!-- business_classes&#45;&gt;i_maximize_skynet_profits -->
        <g id="edge13" class="edge"><title>business_classes-&gt;i_maximize_skynet_profits</title>
            <path fill="none" stroke="black" d="M273,-71.6966C273,-63.9827 273,-54.7125 273,-46.1124"></path>
            <polygon fill="black" stroke="black" points="276.5,-46.1043 273,-36.1043 269.5,-46.1044 276.5,-46.1043"></polygon>
        </g>
        <!-- electrical_engineering -->
        <g id="node17" class="node"><title>electrical_engineering</title>
            <ellipse fill="none" stroke="black" cx="655" cy="-90" rx="96.25" ry="18"></ellipse>
            <text text-anchor="middle" x="655" y="-85.8" font-family="Times,serif" font-size="14.00">electrical engineering</text>
        </g>
        <!-- operating_systems&#45;&gt;electrical_engineering -->
        <g id="edge16" class="edge"><title>operating_systems-&gt;electrical_engineering</title>
            <path fill="none" stroke="black" d="M652.742,-143.697C653.072,-135.983 653.469,-126.712 653.838,-118.112"></path>
            <polygon fill="black" stroke="black" points="657.335,-118.245 654.267,-108.104 650.342,-117.945 657.335,-118.245"></polygon>
        </g>
        <!-- i_make_terminators -->
        <g id="node18" class="node"><title>i_make_terminators</title>
            <ellipse fill="none" stroke="black" cx="657" cy="-18" rx="87.9057" ry="18"></ellipse>
            <text text-anchor="middle" x="657" y="-13.8" font-family="Times,serif" font-size="14.00">i make terminators</text>
        </g>
        <!-- electrical_engineering&#45;&gt;i_make_terminators -->
        <g id="edge17" class="edge"><title>electrical_engineering-&gt;i_make_terminators</title>
            <path fill="none" stroke="black" d="M655.494,-71.6966C655.715,-63.9827 655.98,-54.7125 656.225,-46.1124"></path>
            <polygon fill="black" stroke="black" points="659.724,-46.2002 656.511,-36.1043 652.727,-46.0003 659.724,-46.2002"></polygon>
        </g>
    </g>
</svg>
