<?xml version="1.0" standalone="no"?>
<svg viewBox="0.0 0.0 1002.0 546.3999938964844" style="background-color:#EDEDF2" version="1.1" xmlns="http://www.w3.org/2000/svg" xmlns:xlink="http://www.w3.org/1999/xlink" xml:space="preserve" x="38.0px" y="38.0px" width="926.0" height="470.3999938964844">
<g transform="matrix(1.0, 0.0, 0.0, 1.0, 0.0, 0.0)"></g>
<g transform="matrix(1.0, 0.0, 0.0, 1.0, 0.0, 0.0)"><path d="M 172.0,319.6999969482422 L 172.0,319.6999969482422 C 250.0,319.6999969482422 288.0,195.6999969482422 366.0,195.6999969482422 L 456.0,195.6999969482422 " stroke="#E89969" fill="none" stroke-width="6.0" stroke-dasharray="" stroke-dashoffset="0.0" stroke-linecap="round"></path></g>
<g transform="matrix(1.0, 0.0, 0.0, 1.0, 0.0, 0.0)"><path d="M 172.0,319.6999969482422 L 172.0,319.6999969482422 C 250.0,319.6999969482422 288.0,443.6999969482422 366.0,443.6999969482422 L 418.0,443.6999969482422 " stroke="#75A6D9" fill="none" stroke-width="6.0" stroke-dasharray="" stroke-dashoffset="0.0" stroke-linecap="round"></path></g>
<g transform="matrix(1.0, 0.0, 0.0, 1.0, 0.0, 0.0)"><path d="M 456.0,195.6999969482422 L 456.0,195.6999969482422 C 480.0,195.6999969482422 492.0,117.69999694824219 516.0,117.69999694824219 L 645.0,117.69999694824219 " stroke="#E89969" fill="none" stroke-width="5.0" stroke-dasharray="" stroke-dashoffset="0.0" stroke-linecap="round"></path></g>
<g transform="matrix(1.0, 0.0, 0.0, 1.0, 0.0, 0.0)"><path d="M 456.0,195.6999969482422 L 456.0,195.6999969482422 C 480.0,195.6999969482422 492.0,273.6999969482422 516.0,273.6999969482422 L 661.0,273.6999969482422 " stroke="#E89969" fill="none" stroke-width="5.0" stroke-dasharray="" stroke-dashoffset="0.0" stroke-linecap="round"></path></g>
<g transform="matrix(1.0, 0.0, 0.0, 1.0, 0.0, 0.0)"><path d="M 645.0,117.69999694824219 L 645.0,117.69999694824219 C 669.0,117.69999694824219 681.0,65.69999694824219 705.0,65.69999694824219 L 867.0,65.69999694824219 " stroke="#E89969" fill="none" stroke-width="4.0" stroke-dasharray="" stroke-dashoffset="0.0" stroke-linecap="round"></path></g>
<g transform="matrix(1.0, 0.0, 0.0, 1.0, 0.0, 0.0)"><path d="M 645.0,117.69999694824219 L 645.0,117.69999694824219 C 669.0,117.69999694824219 681.0,169.6999969482422 705.0,169.6999969482422 L 840.0,169.6999969482422 " stroke="#E89969" fill="none" stroke-width="4.0" stroke-dasharray="" stroke-dashoffset="0.0" stroke-linecap="round"></path></g>
<g transform="matrix(1.0, 0.0, 0.0, 1.0, 0.0, 0.0)"><path d="M 661.0,273.6999969482422 L 661.0,273.6999969482422 C 685.0,273.6999969482422 697.0,221.6999969482422 721.0,221.6999969482422 L 883.0,221.6999969482422 " stroke="#E89969" fill="none" stroke-width="4.0" stroke-dasharray="" stroke-dashoffset="0.0" stroke-linecap="round"></path></g>
<g transform="matrix(1.0, 0.0, 0.0, 1.0, 0.0, 0.0)"><path d="M 661.0,273.6999969482422 L 661.0,273.6999969482422 C 685.0,273.6999969482422 697.0,325.6999969482422 721.0,325.6999969482422 L 886.0,325.6999969482422 " stroke="#E89969" fill="none" stroke-width="4.0" stroke-dasharray="" stroke-dashoffset="0.0" stroke-linecap="round"></path></g>
<g transform="matrix(1.0, 0.0, 0.0, 1.0, 0.0, 0.0)"><path d="M 418.0,443.6999969482422 L 418.0,443.6999969482422 C 442.0,443.6999969482422 454.0,404.6999969482422 478.0,404.6999969482422 L 609.0,404.6999969482422 " stroke="#75A6D9" fill="none" stroke-width="5.0" stroke-dasharray="" stroke-dashoffset="0.0" stroke-linecap="round"></path></g>
<g transform="matrix(1.0, 0.0, 0.0, 1.0, 0.0, 0.0)"><path d="M 418.0,443.6999969482422 L 418.0,443.6999969482422 C 442.0,443.6999969482422 454.0,482.6999969482422 478.0,482.6999969482422 L 673.0,482.6999969482422 " stroke="#75A6D9" fill="none" stroke-width="5.0" stroke-dasharray="" stroke-dashoffset="0.0" stroke-linecap="round"></path></g>
<g transform="matrix(1.0, 0.0, 0.0, 1.0, 0.0, 0.0)"><path d="M 673.0,482.6999969482422 L 673.0,482.6999969482422 C 697.0,482.6999969482422 709.0,456.6999969482422 733.0,456.6999969482422 L 964.0,456.6999969482422 " stroke="#75A6D9" fill="none" stroke-width="4.0" stroke-dasharray="" stroke-dashoffset="0.0" stroke-linecap="round"></path></g>
<g transform="matrix(1.0, 0.0, 0.0, 1.0, 0.0, 0.0)"><path d="M 673.0,482.6999969482422 L 673.0,482.6999969482422 C 697.0,482.6999969482422 709.0,508.6999969482422 733.0,508.6999969482422 L 826.0,508.6999969482422 " stroke="#75A6D9" fill="none" stroke-width="4.0" stroke-dasharray="" stroke-dashoffset="0.0" stroke-linecap="round"></path></g>
<g transform="matrix(1.0, 0.0, 0.0, 1.0, 0.0, 0.0)"><path d="M 645.0,117.69999694824219 L 645.0,117.69999694824219 C 669.0,117.69999694824219 681.0,117.69999694824219 705.0,117.69999694824219 L 932.0,117.69999694824219 " stroke="#E89969" fill="none" stroke-width="4.0" stroke-dasharray="" stroke-dashoffset="0.0" stroke-linecap="round"></path></g>
<g transform="matrix(1.0, 0.0, 0.0, 1.0, 0.0, 0.0)"><path d="M 661.0,273.6999969482422 L 661.0,273.6999969482422 C 685.0,273.6999969482422 697.0,273.6999969482422 721.0,273.6999969482422 L 948.0,273.6999969482422 " stroke="#E89969" fill="none" stroke-width="4.0" stroke-dasharray="" stroke-dashoffset="0.0" stroke-linecap="round"></path></g>
<g transform="matrix(1.0, 0.0, 0.0, 1.0, 0.0, 0.0)"><path d="M 609.0,404.6999969482422 L 609.0,404.6999969482422 C 633.0,404.6999969482422 645.0,404.6999969482422 669.0,404.6999969482422 L 921.0,404.6999969482422 " stroke="#75A6D9" fill="none" stroke-width="4.0" stroke-dasharray="" stroke-dashoffset="0.0" stroke-linecap="round"></path></g>
<g transform="matrix(1.0, 0.0, 0.0, 1.0, 0.0, 0.0)"><path d="M 306.0,319.6999969482422 L 306.0,352.6999969482422 C 306.0,358.2228444462422 301.522847498,362.6999969482422 296.0,362.6999969482422 L 48.0,362.6999969482422 C 42.477152502,362.6999969482422 38.0,358.2228444462422 38.0,352.6999969482422 L 38.00000000000001,286.6999969482422 C 38.00000000000001,281.1771494502422 42.47715250200001,276.6999969482422 48.00000000000001,276.6999969482422 L 296.0,276.6999969482422 C 301.522847498,276.6999969482422 306.0,281.1771494502422 306.0,286.6999969482422 Z " stroke="none" fill="#FFFFFF"></path><path d="M 306.0,319.6999969482422 L 306.0,352.6999969482422 C 306.0,358.2228444462422 301.522847498,362.6999969482422 296.0,362.6999969482422 L 48.0,362.6999969482422 C 42.477152502,362.6999969482422 38.0,358.2228444462422 38.0,352.6999969482422 L 38.00000000000001,286.6999969482422 C 38.00000000000001,281.1771494502422 42.47715250200001,276.6999969482422 48.00000000000001,276.6999969482422 L 296.0,276.6999969482422 C 301.522847498,276.6999969482422 306.0,281.1771494502422 306.0,286.6999969482422 Z " stroke="#FFFFFF" fill="none" stroke-width="7.0" stroke-dasharray="" stroke-dashoffset="0.0" stroke-linecap="round" stroke-linejoin="round"></path></g>
<g transform="matrix(1.0, 0.0, 0.0, 1.0, 0.0, 0.0)"><g transform="translate(57.0 313.6999969482422)"><text fill="#4B4B4B" x="8.607421875" y="0.0" font-family="Helvetica" font-size="24.0">Interference Sources </text><text fill="#4B4B4B" x="47.279296875" y="29.0" font-family="Helvetica" font-size="24.0">and Solutions</text></g></g>
<g transform="matrix(1.0, 0.0, 0.0, 1.0, 0.0, 0.0)"><g transform="translate(373.0 188.6999969482422)"><text fill="#6D6D6D" x="5.0" y="0.0" font-family="Helvetica" font-size="20.0">Airborne</text></g></g>
<g transform="matrix(1.0, 0.0, 0.0, 1.0, 0.0, 0.0)"><g transform="translate(523.0 110.69999694824219)"><text fill="#6D6D6D" x="5.0" y="0.0" font-family="Helvetica" font-size="20.0">Electric Field</text></g></g>
<g transform="matrix(1.0, 0.0, 0.0, 1.0, 0.0, 0.0)"><g transform="translate(712.0 58.69999694824219)"><text fill="#6D6D6D" x="5.0" y="0.0" font-family="Helvetica" font-size="20.0">Eliminate source</text></g></g>
<g transform="matrix(1.0, 0.0, 0.0, 1.0, 0.0, 0.0)"><g transform="translate(712.0 110.69999694824219)"><text fill="#6D6D6D" x="5.0" y="0.0" font-family="Helvetica" font-size="20.0">Move away from source</text></g></g>
<g transform="matrix(1.0, 0.0, 0.0, 1.0, 0.0, 0.0)"><g transform="translate(712.0 162.6999969482422)"><text fill="#6D6D6D" x="5.0" y="0.0" font-family="Helvetica" font-size="20.0">Use shielding</text></g></g>
<g transform="matrix(1.0, 0.0, 0.0, 1.0, 0.0, 0.0)"><g transform="translate(523.0 266.6999969482422)"><text fill="#6D6D6D" x="5.0" y="0.0" font-family="Helvetica" font-size="20.0">Magnetic Field</text></g></g>
<g transform="matrix(1.0, 0.0, 0.0, 1.0, 0.0, 0.0)"><g transform="translate(728.0 214.6999969482422)"><text fill="#6D6D6D" x="5.0" y="0.0" font-family="Helvetica" font-size="20.0">Eliminate source</text></g></g>
<g transform="matrix(1.0, 0.0, 0.0, 1.0, 0.0, 0.0)"><g transform="translate(728.0 266.6999969482422)"><text fill="#6D6D6D" x="5.0" y="0.0" font-family="Helvetica" font-size="20.0">Move away from source</text></g></g>
<g transform="matrix(1.0, 0.0, 0.0, 1.0, 0.0, 0.0)"><g transform="translate(728.0 318.6999969482422)"><text fill="#6D6D6D" x="5.0" y="0.0" font-family="Helvetica" font-size="20.0">Use humbuckers</text></g></g>
<g transform="matrix(1.0, 0.0, 0.0, 1.0, 0.0, 0.0)"><g transform="translate(373.0 436.6999969482422)"><text fill="#6D6D6D" x="5.0" y="0.0" font-family="Helvetica" font-size="20.0">Line</text></g></g>
<g transform="matrix(1.0, 0.0, 0.0, 1.0, 0.0, 0.0)"><g transform="translate(485.0 397.6999969482422)"><text fill="#6D6D6D" x="5.0" y="0.0" font-family="Helvetica" font-size="20.0">Ground Loop</text></g></g>
<g transform="matrix(1.0, 0.0, 0.0, 1.0, 0.0, 0.0)"><g transform="translate(676.0 373.6999969482422)"><text fill="#6D6D6D" x="5.0" y="0.0" font-family="Helvetica" font-size="20.0">Use proper grounding and </text><text fill="#6D6D6D" x="5.0" y="24.0" font-family="Helvetica" font-size="20.0">isolation</text></g></g>
<g transform="matrix(1.0, 0.0, 0.0, 1.0, 0.0, 0.0)"><g transform="translate(485.0 475.6999969482422)"><text fill="#6D6D6D" x="5.0" y="0.0" font-family="Helvetica" font-size="20.0">Power Supply Noise</text></g></g>
<g transform="matrix(1.0, 0.0, 0.0, 1.0, 0.0, 0.0)"><g transform="translate(740.0 449.6999969482422)"><text fill="#6D6D6D" x="5.0" y="0.0" font-family="Helvetica" font-size="20.0">Eliminate cause of noise</text></g></g>
<g transform="matrix(1.0, 0.0, 0.0, 1.0, 0.0, 0.0)"><g transform="translate(740.0 501.6999969482422)"><text fill="#6D6D6D" x="5.0" y="0.0" font-family="Helvetica" font-size="20.0">Use filter</text></g></g>
<g transform="matrix(1.0, 0.0, 0.0, 1.0, 0.0, 0.0)"></g>
</svg>